<?xml version="1.0" encoding="UTF-8" standalone="no"?>
<svg
   xmlns:dc="http://purl.org/dc/elements/1.1/"
   xmlns:cc="http://creativecommons.org/ns#"
   xmlns:rdf="http://www.w3.org/1999/02/22-rdf-syntax-ns#"
   xmlns:svg="http://www.w3.org/2000/svg"
   xmlns="http://www.w3.org/2000/svg"
   width="128"
   height="128"
   viewBox="0 0 33.866665 33.866668"
   version="1.1"
   id="svg8">
  <defs
     id="defs2" />
  <metadata
     id="metadata5">
    <rdf:RDF>
      <cc:Work
         rdf:about="">
        <dc:format>image/svg+xml</dc:format>
        <dc:type
           rdf:resource="http://purl.org/dc/dcmitype/StillImage" />
        <dc:title></dc:title>
      </cc:Work>
    </rdf:RDF>
  </metadata>
  <g
     id="layer1">
    <circle
       style="font-variation-settings:normal;opacity:1;vector-effect:none;fill:#bedfff;fill-opacity:1;fill-rule:evenodd;stroke:none;stroke-width:6.61459;stroke-linecap:square;stroke-linejoin:miter;stroke-miterlimit:4;stroke-dasharray:none;stroke-dashoffset:0;stroke-opacity:0.5;stop-color:#000000;stop-opacity:1"
       id="path833"
       cx="16.759304"
       cy="16.94569"
       r="15.058922" />
    <path
       id="rect835"
       style="font-variation-settings:normal;opacity:1;vector-effect:none;fill:#d89d00;fill-opacity:1;fill-rule:evenodd;stroke:none;stroke-width:25;stroke-linecap:square;stroke-linejoin:miter;stroke-miterlimit:4;stroke-dasharray:none;stroke-dashoffset:0;stroke-opacity:0.5;stop-color:#000000;stop-opacity:1"
       d="m 101.73047,22.025391 c -1.928634,1.981202 -3.468625,3.481931 -4.119142,3.925781 -2.850138,0.805418 -10.671875,2.125 -10.671875,2.125 -0.431698,-1.45072 1.883574,-1.416391 1.638672,-1.904297 C 87.825602,24.672649 87.33004,25.792787 85.5,27.158203 c -0.803116,0.599213 -4.463325,1.508781 -6.072266,1.115235 -1.471952,-0.360038 -4.974884,-2.230517 -10.03125,1.777343 -0.64913,0.514525 -1.432389,1.065255 -1.935546,1.828125 -0.549022,0.832411 1.821036,2.383757 1.226562,3.257813 -0.410306,0.603275 -1.438572,0.932873 -2.402344,1.554687 -0.720102,0.464599 -1.622094,-3.062121 -2.443359,-2.892578 -1.546855,0.319332 -2.669038,0.607579 -3.861328,1.720703 -1.425124,1.330502 6.851769,4.352115 4.724609,4.748047 -1.994853,0.371301 -3.589816,0.806887 -3.75,2.345703 -0.129071,1.239942 1.116866,3.449773 0.429688,4.96875 -1.079078,2.385253 -5.9241,7.083084 -5.021485,12.960938 0.570365,3.714217 0.450893,8.001166 13.683594,7.671875 1.719572,-0.04278 -0.928346,-0.09515 -0.464844,1.009765 2.248048,5.359049 1.695576,7.778102 1.962891,12.447266 0.545144,3.736649 1.24331,6.465073 1.671875,10.4375 0.248504,2.303562 1.441152,3.915117 2.205078,4.238281 0.704848,0.298167 2.037858,0.309885 3.859375,-1.279297 1.823664,-1.591041 2.990772,-5.734839 4.654297,-8.984375 0.72268,-1.411687 2.559447,-2.369739 2.882812,-3.351562 0.826095,-2.508265 0.357878,-2.893032 -0.0293,-4.359375 -1.384815,-5.244673 5.690943,-7.919898 6.328126,-15.488281 0.06183,-0.734518 -5.002687,1.552768 -4.621094,0.615234 0.727238,-1.78673 3.635102,-2.780557 5.9375,-4.449219 1.690809,-1.225413 1.619338,-3.237904 1.376953,-5.464843 0,0 4.391766,-0.191153 5.996096,2.666015 1.05343,1.876052 2.22501,9.554694 7.40234,11.230469 0,0 -1.56116,-8.320067 2.51954,-11.667969 3.18847,-2.615898 2.86734,-1.851729 7.45312,-2.779297 A 56.915611,56.915611 0 0 0 101.73047,22.025391 Z"
       transform="scale(0.26458333)" />
    <path
       id="rect883"
       style="font-variation-settings:normal;opacity:1;vector-effect:none;fill:#f51af2;fill-opacity:1;fill-rule:evenodd;stroke:none;stroke-width:25;stroke-linecap:square;stroke-linejoin:miter;stroke-miterlimit:4;stroke-dasharray:none;stroke-dashoffset:0;stroke-opacity:0.5;stop-color:#000000;stop-opacity:1"
       d="M 26.685547,20.507812 A 56.915611,56.915611 0 0 0 6.6816406,58.679688 c 1.5878831,-0.152116 3.3681924,0.14888 5.2812504,1.509765 2.398529,1.706234 3.614142,-0.495253 8.267578,5.201172 1.348342,1.65055 2.888804,0.819001 3.863281,2.619141 0.937881,1.732531 -2.131409,3.252855 -1.519531,8.09375 0.932444,7.377071 2.800622,6.759177 5.824219,10.039062 0.455278,0.493871 1.790072,19.496112 4.111328,19.576172 2.824372,0.0974 3.502034,-5.14504 5.818359,-7.847656 2.358187,-2.751466 1.943073,-5.354217 3.697266,-8.183594 0.636306,-1.026319 1.99414,-1.435547 1.99414,-1.435547 0.743834,-0.288605 3.651643,-10.311391 2.6875,-11.773437 -0.282773,-0.428799 -0.59463,-1.041871 -1.349609,-1.363282 -1.156649,-0.492412 -3.93937,-1.126556 -7.552734,-6.214843 -1.650264,-2.323873 -3.769372,-2.866244 -6.835938,-4.613282 -1.205398,-0.686732 -2.801756,-1.06021 -4.005859,-0.628906 -1.67535,0.600106 -2.816295,2.229715 -3.101563,2.042969 -1.951047,-1.277341 -2.56476,-4.383525 -3.248047,-5.837891 0,0 -1.52842,1.487209 -0.800781,0.185547 1.388169,-2.48327 1.84928,-3.640966 0.916016,-3.912109 -1.00512,-0.29201 -1.148535,1.333641 -2.855469,1.789062 -1.212469,0.323475 -2.416016,-0.326172 -2.416016,-0.326172 0.105225,-1.794156 0.07647,-5.086849 2.140625,-5.53125 2.797777,-0.602449 4.779297,-0.611328 4.779297,-0.611328 0.600005,0.43917 0.770768,4.890064 1.777344,2.798828 C 32.21556,37.507982 42.370142,42.413523 41.5,39.71875 c -1.205461,-3.733232 -1.78506,-5.981769 -2.890625,-7.488281 -0.311724,-0.424779 3.302166,-2.126388 3.296875,-2.240235 -0.03262,-0.716677 -3.524006,-2.298801 -3.529297,-3.193359 2.734027,0.394447 4.276659,0.612106 6.525391,0.951172 0.122464,0.01846 -0.876261,1.887712 -0.488282,2.751953 0.487915,1.086851 1.097733,2.830766 1.800782,2.671875 1.593906,-0.360227 8.645505,-3.454481 13.61914,-6.236328 L 59.369141,25.625 c 0,0 -15.912159,-3.543394 -32.683594,-5.117188 z"
       transform="scale(0.26458333)" />
    <path
       d="m 5.6811543,14.831394 c 0.476158,0.215039 0.807932,0.374782 1.151994,0.516093 0.31027,0.125951 0.626685,0.233471 0.940027,0.350206 0.03994,-0.119807 0.07987,-0.239615 0.119807,-0.359422 -0.771068,0.05222 -1.259513,-0.961531 -2.211828,-0.506877 z"
       id="path848-6"
       style="fill:#3f3ff5;fill-opacity:1;stroke-width:0.264583" />
    <path
       d="m 24.718777,20.402137 c -0.201397,0.482087 -0.351631,0.818274 -0.48309,1.166219 -0.117068,0.31373 -0.215537,0.633077 -0.323305,0.949615 0.120896,0.03651 0.241792,0.07302 0.362687,0.109527 -0.07415,-0.769269 0.925287,-1.286374 0.443708,-2.225361 z"
       id="path940"
       style="fill:#67f53f;fill-opacity:1;stroke-width:0.264583" />
    <path
       id="path942"
       style="font-variation-settings:normal;opacity:1;vector-effect:none;fill:#f52d2d;fill-opacity:1;fill-rule:evenodd;stroke:none;stroke-width:25;stroke-linecap:square;stroke-linejoin:miter;stroke-miterlimit:4;stroke-dasharray:none;stroke-dashoffset:0;stroke-opacity:0.5;stop-color:#000000;stop-opacity:1"
       d="M 112.03516,87.048828 A 9.2088401,17.897347 0 0 0 102.92383,104.94336 56.915611,56.915611 0 0 0 115,87.939453 a 9.2088401,17.897347 0 0 0 -2.86719,-0.890625 9.2088401,17.897347 0 0 0 -0.0977,0 z"
       transform="scale(0.26458333)" />
  </g>
</svg>
